<svg xmlns="http://www.w3.org/2000/svg" viewBox="0 0 52.1 22.09"><defs><style>.cls-1{fill:#af1e34;}.cls-2{fill:#fff;}.cls-3{fill:#2d2e2d;}</style></defs><g id="Layer_2" data-name="Layer 2"><g id="Layer_1-2" data-name="Layer 1"><path class="cls-1" d="M11.05,22.09a11,11,0,1,0-11-11,11,11,0,0,0,11.05,11h0"/><path class="cls-2" d="M10.61,6.2v9.69h3.08V15H11.5V6.2Z"/><path class="cls-2" d="M7.52,8.84a1.33,1.33,0,1,0,0-2.65A1.34,1.34,0,0,0,6.2,7.52h0A1.32,1.32,0,0,0,7.52,8.84"/><path class="cls-2" d="M11.5,1.8h-.44A9.25,9.25,0,1,0,20.3,11h0v-.41H13.7v.85h5.72v.14a8.38,8.38,0,1,1-8.36-9h.44Z"/><path class="cls-3" d="M48.54,3.7V.08H45.87V3.7H42.34V6.26h3.53V9.84h2.67V6.26H52.1V3.7Z"/><path class="cls-3" d="M36.8,3.72V12c0,2.3-1.14,3.42-3.07,3.42S30.66,14.32,30.66,12V3.72H27.4v8.36c0,4.53,2.41,6.23,6.21,6.23h.23c3.8,0,6.22-1.7,6.22-6.23V3.72Z"/></g></g></svg>