<svg xmlns="http://www.w3.org/2000/svg" viewBox="0 0 51.18 22.09"><defs><style>.cls-1{fill:#af1e34;}.cls-2{fill:#fff;}</style></defs><g id="Layer_2" data-name="Layer 2"><g id="Layer_1-2" data-name="Layer 1"><path class="cls-1" d="M11.05,22.09a11,11,0,1,0-11-11,11,11,0,0,0,11.05,11h0"/><path class="cls-2" d="M10.61,6.2v9.69h3.08V15H11.5V6.2Z"/><path class="cls-2" d="M7.52,8.84a1.33,1.33,0,1,0,0-2.65A1.34,1.34,0,0,0,6.2,7.52h0A1.32,1.32,0,0,0,7.52,8.84"/><path class="cls-2" d="M11.5,1.8h-.44A9.25,9.25,0,1,0,20.3,11h0v-.41H13.7v.85h5.72v.14a8.39,8.39,0,1,1-8.36-9h.44Z"/><path class="cls-2" d="M47.62,3.75V.13H45V3.75H41.42V6.31H45V9.89h2.67V6.31h3.56V3.75Z"/><path class="cls-2" d="M36.05,3.77v8.3c0,2.3-1.14,3.43-3.06,3.43s-3.07-1.13-3.07-3.43V3.77H26.66v8.35c0,4.54,2.41,6.24,6.21,6.24h.23c3.8,0,6.21-1.7,6.21-6.24V3.77Z"/></g></g></svg>